<svg xmlns="http://www.w3.org/2000/svg" xmlns:xlink="http://www.w3.org/1999/xlink" version="1.1" data-diagram-type="DESCRIPTION" style="width:961px;height:1198px;background:#FFFFFF;" width="961px" height="1198px" viewBox="0 0 961 1198" zoomAndPan="magnify" preserveAspectRatio="none" contentStyleType="text/css"><?plantuml 1.2026.8?><defs/><g font-family="sans-serif" lengthAdjust="spacing"><!--cluster Terminus--><g class="cluster" data-qualified-name="Terminus" id="ent0004" data-source-line="9"><rect x="247.31" y="7" width="700.22" height="1060" fill="none" style="stroke:#181818;stroke-width:1;" rx="2.5" ry="2.5"/><text x="560.619" y="21.995" fill="#000" font-size="14" textLength="73.603" font-weight="700">Terminus</text></g><!--entity UC01--><g class="entity" data-qualified-name="Terminus.UC01" id="ent0005" data-source-line="10"><ellipse cx="423.114" cy="445.005" rx="84.224" ry="19.245" fill="#F1F1F1" style="stroke:#181818;stroke-width:0.5;"/><text x="352.847" y="449.653" fill="#000" font-size="14" textLength="140.533">UC01. Autenticar-se</text></g><!--entity UC02--><g class="entity" data-qualified-name="Terminus.UC02" id="ent0006" data-source-line="11"><ellipse cx="423.109" cy="775.002" rx="105.059" ry="23.412" fill="#F1F1F1" style="stroke:#181818;stroke-width:0.5;"/><text x="329.535" y="779.65" fill="#000" font-size="14" textLength="187.147">UC02. Cadastrar motorista</text></g><!--entity UC02X--><g class="entity" data-qualified-name="Terminus.UC02X" id="ent0007" data-source-line="12"><ellipse cx="818.723" cy="961.003" rx="112.813" ry="24.963" fill="#F1F1F1" style="stroke:#181818;stroke-width:0.5;"/><text x="716.748" y="965.651" fill="#000" font-size="14" textLength="203.95">Anonimizar motorista (LGPD)</text></g><!--entity UC03--><g class="entity" data-qualified-name="Terminus.UC03" id="ent0008" data-source-line="13"><ellipse cx="423.106" cy="1028.999" rx="99.396" ry="22.279" fill="#F1F1F1" style="stroke:#181818;stroke-width:0.5;"/><text x="335.743" y="1033.648" fill="#000" font-size="14" textLength="174.727">UC03. Cadastrar gerente</text></g><!--entity UC04--><g class="entity" data-qualified-name="Terminus.UC04" id="ent0009" data-source-line="14"><ellipse cx="423.105" cy="691.003" rx="114.815" ry="25.363" fill="#F1F1F1" style="stroke:#181818;stroke-width:0.5;"/><text x="318.977" y="695.651" fill="#000" font-size="14" textLength="208.257">UC04. Cadastrar local (ponto)</text></g><!--entity UC05--><g class="entity" data-qualified-name="Terminus.UC05" id="ent0010" data-source-line="15"><ellipse cx="423.111" cy="523.002" rx="106.911" ry="23.782" fill="#F1F1F1" style="stroke:#181818;stroke-width:0.5;"/><text x="327.52" y="527.651" fill="#000" font-size="14" textLength="191.181">UC05. Montar roteiro diário</text></g><!--entity UC06--><g class="entity" data-qualified-name="Terminus.UC06" id="ent0011" data-source-line="16"><ellipse cx="423.11" cy="76.002" rx="158.06" ry="34.012" fill="#F1F1F1" style="stroke:#181818;stroke-width:0.5;"/><text x="273.498" y="80.65" fill="#000" font-size="14" textLength="299.223">UC06. Executar roteiro e registrar horários</text></g><!--entity UC07--><g class="entity" data-qualified-name="Terminus.UC07" id="ent0012" data-source-line="17"><ellipse cx="423.108" cy="862.004" rx="131.718" ry="28.744" fill="#F1F1F1" style="stroke:#181818;stroke-width:0.5;"/><text x="301.008" y="866.652" fill="#000" font-size="14" textLength="244.2">UC07. Corrigir horários registrados</text></g><!--entity UC08--><g class="entity" data-qualified-name="Terminus.UC08" id="ent0013" data-source-line="18"><ellipse cx="423.108" cy="179" rx="159.798" ry="34.36" fill="#F1F1F1" style="stroke:#181818;stroke-width:0.5;"/><text x="271.696" y="183.648" fill="#000" font-size="14" textLength="302.825">UC08. Encerrar roteiro e informar distância</text></g><!--entity UC09--><g class="entity" data-qualified-name="Terminus.UC09" id="ent0014" data-source-line="19"><ellipse cx="423.109" cy="272.002" rx="107.559" ry="23.912" fill="#F1F1F1" style="stroke:#181818;stroke-width:0.5;"/><text x="326.814" y="276.65" fill="#000" font-size="14" textLength="192.589">UC09. Consultar dashboard</text></g><!--entity UC10--><g class="entity" data-qualified-name="Terminus.UC10" id="ent0015" data-source-line="20"><ellipse cx="423.107" cy="361.001" rx="137.207" ry="29.841" fill="#F1F1F1" style="stroke:#181818;stroke-width:0.5;"/><text x="295.234" y="365.65" fill="#000" font-size="14" textLength="255.746">UC10. Consultar histórico e exportar</text></g><!--entity UC11--><g class="entity" data-qualified-name="Terminus.UC11" id="ent0016" data-source-line="21"><ellipse cx="423.11" cy="605.996" rx="111.43" ry="24.686" fill="#F1F1F1" style="stroke:#181818;stroke-width:0.5;"/><text x="322.625" y="610.645" fill="#000" font-size="14" textLength="200.97">UC11. Gerenciar parâmetros</text></g><!--entity UC12--><g class="entity" data-qualified-name="Terminus.UC12" id="ent0017" data-source-line="22"><ellipse cx="423.112" cy="949" rx="102.152" ry="22.83" fill="#F1F1F1" style="stroke:#181818;stroke-width:0.5;"/><text x="332.717" y="953.649" fill="#000" font-size="14" textLength="180.79">UC12. Consultar auditoria</text></g><!--entity Motorista--><g class="entity" data-qualified-name="Motorista" id="ent0001" data-source-line="5"><ellipse cx="103.159" cy="81.35" rx="8" ry="8" fill="#F1F1F1" style="stroke:#181818;stroke-width:0.5;"/><path d="M103.159,89.35 L103.159,116.35 M90.159,97.35 L116.159,97.35 M103.159,116.35 L90.159,131.35 M103.159,116.35 L116.159,131.35" style="stroke:#181818;stroke-width:0.5;" fill="none"/><text x="24.03" y="145.845" fill="#000" font-size="14" textLength="158.259">Motorista (role: driver)</text></g><!--entity Gerente--><g class="entity" data-qualified-name="Gerente" id="ent0002" data-source-line="6"><ellipse cx="103.158" cy="491.35" rx="8" ry="8" fill="#F1F1F1" style="stroke:#181818;stroke-width:0.5;"/><path d="M103.158,499.35 L103.158,526.35 M90.158,507.35 L116.158,507.35 M103.158,526.35 L90.158,541.35 M103.158,526.35 L116.158,541.35" style="stroke:#181818;stroke-width:0.5;" fill="none"/><text x="17.61" y="555.845" fill="#000" font-size="14" textLength="171.097">Gerente (role: manager)</text></g><!--entity Admin--><g class="entity" data-qualified-name="Admin" id="ent0003" data-source-line="7"><ellipse cx="103.156" cy="737.35" rx="8" ry="8" fill="#F1F1F1" style="stroke:#181818;stroke-width:0.5;"/><path d="M103.156,745.35 L103.156,772.35 M90.156,753.35 L116.156,753.35 M103.156,772.35 L90.156,787.35 M103.156,772.35 L116.156,787.35" style="stroke:#181818;stroke-width:0.5;" fill="none"/><text x="6" y="801.845" fill="#000" font-size="14" textLength="194.312">Administrador (role: admin)</text></g><!--link Motorista to UC01--><g class="link" data-entity-1="ent0001" data-entity-2="ent0005" id="lnk18" data-source-line="25" data-link-type="dependency"><path d="M110.2,149.47 C122.4,213.65 156.28,341.99 239.31,408 C267.19,430.17 299.897,439.515 333.797,443.645" style="stroke:#181818;stroke-width:1;" fill="none" id="Motorista-to-UC01"/><polygon points="338.76,444.25,330.31,439.191,333.797,443.645,329.342,447.132,338.76,444.25" fill="#181818" style="stroke:#181818;stroke-width:1;stroke-linejoin:miter;stroke-miterlimit:10;"/></g><!--link Motorista to UC06--><g class="link" data-entity-1="ent0001" data-entity-2="ent0011" id="lnk19" data-source-line="26" data-link-type="dependency"><path d="M171.24,72.37 C189.78,63.58 210.32,55.51 230.31,51 C259.63,44.39 286.939,44.748 316.499,48.938" style="stroke:#181818;stroke-width:1;" fill="none" id="Motorista-to-UC06"/><polygon points="321.45,49.64,313.1,44.417,316.499,48.938,311.978,52.337,321.45,49.64" fill="#181818" style="stroke:#181818;stroke-width:1;stroke-linejoin:miter;stroke-miterlimit:10;"/></g><!--link Motorista to UC08--><g class="link" data-entity-1="ent0001" data-entity-2="ent0013" id="lnk20" data-source-line="27" data-link-type="dependency"><path d="M182.73,80.49 C200.18,78.55 217.56,80.97 231.31,92 C244.1,102.26 228.04,116.11 239.31,128 C252.91,142.35 265.552,150.878 284.022,158.428" style="stroke:#181818;stroke-width:1;" fill="none" id="Motorista-to-UC08"/><polygon points="288.65,160.32,281.833,153.212,284.022,158.428,278.806,160.617,288.65,160.32" fill="#181818" style="stroke:#181818;stroke-width:1;stroke-linejoin:miter;stroke-miterlimit:10;"/></g><!--link Motorista to UC09--><g class="link" data-entity-1="ent0001" data-entity-2="ent0014" id="lnk21" data-source-line="28" data-link-type="dependency"><path d="M169.46,149.64 C191.6,165.4 214.86,185.29 231.31,208 C237.66,216.77 231.23,223.8 239.31,231 C260.91,250.27 284.697,260.073 312.917,265.993" style="stroke:#181818;stroke-width:1;" fill="none" id="Motorista-to-UC09"/><polygon points="317.81,267.02,309.823,261.257,312.917,265.993,308.18,269.087,317.81,267.02" fill="#181818" style="stroke:#181818;stroke-width:1;stroke-linejoin:miter;stroke-miterlimit:10;"/></g><!--link Motorista to UC10--><g class="link" data-entity-1="ent0001" data-entity-2="ent0015" id="lnk22" data-source-line="29" data-link-type="dependency"><path d="M119.7,149.58 C140.22,195.52 180.71,271.26 239.31,313 C259.49,327.38 278.862,336.044 302.922,343.094" style="stroke:#181818;stroke-width:1;" fill="none" id="Motorista-to-UC10"/><polygon points="307.72,344.5,300.208,338.131,302.922,343.094,297.958,345.808,307.72,344.5" fill="#181818" style="stroke:#181818;stroke-width:1;stroke-linejoin:miter;stroke-miterlimit:10;"/></g><!--link Gerente to UC01--><g class="link" data-entity-1="ent0002" data-entity-2="ent0005" id="lnk23" data-source-line="31" data-link-type="dependency"><path d="M188.95,495.4 C205.58,490.7 222.94,486.01 239.31,482 C277.84,472.56 316.439,464.621 351.339,457.931" style="stroke:#181818;stroke-width:1;" fill="none" id="Gerente-to-UC01"/><polygon points="356.25,456.99,346.658,454.756,351.339,457.931,348.164,462.613,356.25,456.99" fill="#181818" style="stroke:#181818;stroke-width:1;stroke-linejoin:miter;stroke-miterlimit:10;"/></g><!--link Gerente to UC02--><g class="link" data-entity-1="ent0002" data-entity-2="ent0006" id="lnk24" data-source-line="32" data-link-type="dependency"><path d="M117.85,559.49 C137.17,607.99 177.16,690.29 239.31,734 C263.79,751.22 289.381,760.349 318.401,766.279" style="stroke:#181818;stroke-width:1;" fill="none" id="Gerente-to-UC02"/><polygon points="323.3,767.28,315.283,761.559,318.401,766.279,313.681,769.397,323.3,767.28" fill="#181818" style="stroke:#181818;stroke-width:1;stroke-linejoin:miter;stroke-miterlimit:10;"/></g><!--link Gerente to UC04--><g class="link" data-entity-1="ent0002" data-entity-2="ent0009" id="lnk25" data-source-line="33" data-link-type="dependency"><path d="M135.15,559.47 C160.28,588.11 198.18,625.92 239.31,648 C265.31,661.96 290.891,670.325 319.411,676.725" style="stroke:#181818;stroke-width:1;" fill="none" id="Gerente-to-UC04"/><polygon points="324.29,677.82,316.384,671.946,319.411,676.725,314.633,679.752,324.29,677.82" fill="#181818" style="stroke:#181818;stroke-width:1;stroke-linejoin:miter;stroke-miterlimit:10;"/></g><!--link Gerente to UC05--><g class="link" data-entity-1="ent0002" data-entity-2="ent0010" id="lnk26" data-source-line="34" data-link-type="dependency"><path d="M188.94,521.54 C227.94,521.78 269.62,522.039 310.94,522.299" style="stroke:#181818;stroke-width:1;" fill="none" id="Gerente-to-UC05"/><polygon points="315.94,522.33,306.965,518.273,310.94,522.299,306.915,526.273,315.94,522.33" fill="#181818" style="stroke:#181818;stroke-width:1;stroke-linejoin:miter;stroke-miterlimit:10;"/></g><!--link Gerente to UC07--><g class="link" data-entity-1="ent0002" data-entity-2="ent0012" id="lnk27" data-source-line="35" data-link-type="dependency"><path d="M125.16,559.33 C145.58,597.27 176.84,657.31 200.31,711 C220.25,756.62 202.24,782.77 239.31,816 C257.34,832.17 275.429,841.401 298.859,848.391" style="stroke:#181818;stroke-width:1;" fill="none" id="Gerente-to-UC07"/><polygon points="303.65,849.82,296.169,843.414,298.859,848.391,293.882,851.08,303.65,849.82" fill="#181818" style="stroke:#181818;stroke-width:1;stroke-linejoin:miter;stroke-miterlimit:10;"/></g><!--link Gerente to UC08--><g class="link" data-entity-1="ent0002" data-entity-2="ent0013" id="lnk28" data-source-line="36" data-link-type="dependency"><path d="M104.85,482.36 C108.53,407.84 128.46,245.35 230.31,174 C254.18,157.28 279.143,152.39 308.243,153.44" style="stroke:#181818;stroke-width:1;" fill="none" id="Gerente-to-UC08"/><polygon points="313.24,153.62,304.39,149.298,308.243,153.44,304.102,157.293,313.24,153.62" fill="#181818" style="stroke:#181818;stroke-width:1;stroke-linejoin:miter;stroke-miterlimit:10;"/></g><!--link Gerente to UC09--><g class="link" data-entity-1="ent0002" data-entity-2="ent0014" id="lnk29" data-source-line="37" data-link-type="dependency"><path d="M114.21,482.36 C129.79,430.85 165.02,341.08 230.31,297 C255.36,280.09 281.532,272.546 311.392,269.146" style="stroke:#181818;stroke-width:1;" fill="none" id="Gerente-to-UC09"/><polygon points="316.36,268.58,306.965,265.624,311.392,269.146,307.87,273.573,316.36,268.58" fill="#181818" style="stroke:#181818;stroke-width:1;stroke-linejoin:miter;stroke-miterlimit:10;"/></g><!--link Gerente to UC10--><g class="link" data-entity-1="ent0002" data-entity-2="ent0015" id="lnk30" data-source-line="38" data-link-type="dependency"><path d="M140.73,482.58 C166.21,457.92 202.17,427.06 239.31,408 C262.93,395.89 285.067,388.011 310.907,381.161" style="stroke:#181818;stroke-width:1;" fill="none" id="Gerente-to-UC10"/><polygon points="315.74,379.88,306.016,378.32,310.907,381.161,308.065,386.053,315.74,379.88" fill="#181818" style="stroke:#181818;stroke-width:1;stroke-linejoin:miter;stroke-miterlimit:10;"/></g><!--link Gerente to UC11--><g class="link" data-entity-1="ent0002" data-entity-2="ent0016" id="lnk31" data-source-line="39" data-link-type="dependency"><path d="M188.91,549.14 C205.55,554.33 222.92,559.52 239.31,564 C272.45,573.06 304.44,580.699 336.34,587.829" style="stroke:#181818;stroke-width:1;" fill="none" id="Gerente-to-UC11"/><polygon points="341.22,588.92,333.309,583.053,336.34,587.829,331.564,590.861,341.22,588.92" fill="#181818" style="stroke:#181818;stroke-width:1;stroke-linejoin:miter;stroke-miterlimit:10;"/></g><!--link Admin to UC01--><g class="link" data-entity-1="ent0003" data-entity-2="ent0005" id="lnk32" data-source-line="41" data-link-type="dependency"><path d="M124.77,728.5 C144.88,690.43 175.94,630.29 200.31,577 C209.8,556.25 221.72,496.54 239.31,482 C266.9,459.21 299.754,449.796 333.844,445.776" style="stroke:#181818;stroke-width:1;" fill="none" id="Admin-to-UC01"/><polygon points="338.81,445.19,329.403,442.272,333.844,445.776,330.34,450.216,338.81,445.19" fill="#181818" style="stroke:#181818;stroke-width:1;stroke-linejoin:miter;stroke-miterlimit:10;"/></g><!--link Admin to UC02--><g class="link" data-entity-1="ent0003" data-entity-2="ent0006" id="lnk33" data-source-line="42" data-link-type="dependency"><path d="M162.37,805.53 C182.96,817.05 206.85,828.16 230.31,834 C238.99,836.16 232.39,821.67 239.31,816 C262.2,797.24 287.021,787.641 315.811,781.761" style="stroke:#181818;stroke-width:1;" fill="none" id="Admin-to-UC02"/><polygon points="320.71,780.76,311.092,778.642,315.811,781.761,312.692,786.48,320.71,780.76" fill="#181818" style="stroke:#181818;stroke-width:1;stroke-linejoin:miter;stroke-miterlimit:10;"/></g><!--link Admin to UC03--><g class="link" data-entity-1="ent0003" data-entity-2="ent0008" id="lnk34" data-source-line="43" data-link-type="dependency"><path d="M116.72,805.41 C135.25,855.74 174.85,943.01 239.31,989 C264.7,1007.12 291.834,1016.355 321.984,1021.965" style="stroke:#181818;stroke-width:1;" fill="none" id="Admin-to-UC03"/><polygon points="326.9,1022.88,318.784,1017.301,321.984,1021.965,317.32,1025.166,326.9,1022.88" fill="#181818" style="stroke:#181818;stroke-width:1;stroke-linejoin:miter;stroke-miterlimit:10;"/></g><!--link Admin to UC04--><g class="link" data-entity-1="ent0003" data-entity-2="ent0009" id="lnk35" data-source-line="44" data-link-type="dependency"><path d="M200.62,766.49 C211.65,763.37 222.18,758.73 231.31,752 C238.36,746.81 232.57,739.59 239.31,734 C260.53,716.43 282.786,706.928 309.616,700.538" style="stroke:#181818;stroke-width:1;" fill="none" id="Admin-to-UC04"/><polygon points="314.48,699.38,304.798,697.574,309.616,700.538,306.652,705.356,314.48,699.38" fill="#181818" style="stroke:#181818;stroke-width:1;stroke-linejoin:miter;stroke-miterlimit:10;"/></g><!--link Admin to UC05--><g class="link" data-entity-1="ent0003" data-entity-2="ent0010" id="lnk36" data-source-line="45" data-link-type="dependency"><path d="M136.52,728.65 C164.65,693.79 204.91,640.01 231.31,588 C236.4,577.98 230.97,571.54 239.31,564 C260.91,544.49 284.854,534.616 313.224,528.726" style="stroke:#181818;stroke-width:1;" fill="none" id="Admin-to-UC05"/><polygon points="318.12,527.71,308.495,525.623,313.224,528.726,310.121,533.456,318.12,527.71" fill="#181818" style="stroke:#181818;stroke-width:1;stroke-linejoin:miter;stroke-miterlimit:10;"/></g><!--link Admin to UC07--><g class="link" data-entity-1="ent0003" data-entity-2="ent0012" id="lnk37" data-source-line="46" data-link-type="dependency"><path d="M157.24,805.52 C178.88,819.32 204.8,833.54 230.31,842 C250.33,848.64 267.163,852.496 288.633,855.636" style="stroke:#181818;stroke-width:1;" fill="none" id="Admin-to-UC07"/><polygon points="293.58,856.36,285.254,851.1,288.633,855.636,284.096,859.015,293.58,856.36" fill="#181818" style="stroke:#181818;stroke-width:1;stroke-linejoin:miter;stroke-miterlimit:10;"/></g><!--link Admin to UC08--><g class="link" data-entity-1="ent0003" data-entity-2="ent0013" id="lnk38" data-source-line="47" data-link-type="dependency"><path d="M128.78,728.71 C151.4,691.51 183.84,632.66 200.31,577 C222.27,502.81 188.67,289.5 239.31,231 C252.27,216.04 264.598,207.184 282.918,199.404" style="stroke:#181818;stroke-width:1;" fill="none" id="Admin-to-UC08"/><polygon points="287.52,197.45,277.673,197.286,282.918,199.404,280.8,204.65,287.52,197.45" fill="#181818" style="stroke:#181818;stroke-width:1;stroke-linejoin:miter;stroke-miterlimit:10;"/></g><!--link Admin to UC09--><g class="link" data-entity-1="ent0003" data-entity-2="ent0014" id="lnk39" data-source-line="48" data-link-type="dependency"><path d="M128.28,728.55 C150.54,691.25 182.72,632.32 200.31,577 C236.12,464.39 159.1,400.78 239.31,314 C259.2,292.48 282.805,281.922 311.405,275.952" style="stroke:#181818;stroke-width:1;" fill="none" id="Admin-to-UC09"/><polygon points="316.3,274.93,306.673,272.853,311.405,275.952,308.307,280.685,316.3,274.93" fill="#181818" style="stroke:#181818;stroke-width:1;stroke-linejoin:miter;stroke-miterlimit:10;"/></g><!--link Admin to UC10--><g class="link" data-entity-1="ent0003" data-entity-2="ent0015" id="lnk40" data-source-line="49" data-link-type="dependency"><path d="M127.1,728.58 C148.65,691.05 180.47,631.75 200.31,577 C213.44,540.77 212.4,435.59 239.31,408 C255.21,391.7 271.207,382.371 292.987,375.111" style="stroke:#181818;stroke-width:1;" fill="none" id="Admin-to-UC10"/><polygon points="297.73,373.53,287.927,372.581,292.987,375.111,290.457,380.171,297.73,373.53" fill="#181818" style="stroke:#181818;stroke-width:1;stroke-linejoin:miter;stroke-miterlimit:10;"/></g><!--link Admin to UC11--><g class="link" data-entity-1="ent0003" data-entity-2="ent0016" id="lnk41" data-source-line="50" data-link-type="dependency"><path d="M168.96,728.47 C191.17,712.66 214.62,692.71 231.31,670 C237.47,661.62 231.52,654.89 239.31,648 C260.29,629.45 282.934,619.738 310.224,613.538" style="stroke:#181818;stroke-width:1;" fill="none" id="Admin-to-UC11"/><polygon points="315.1,612.43,305.437,610.523,310.224,613.538,307.21,618.324,315.1,612.43" fill="#181818" style="stroke:#181818;stroke-width:1;stroke-linejoin:miter;stroke-miterlimit:10;"/></g><!--link Admin to UC12--><g class="link" data-entity-1="ent0003" data-entity-2="ent0017" id="lnk42" data-source-line="51" data-link-type="dependency"><path d="M130.72,805.37 C155.19,837.72 194.42,882.68 239.31,908 C266.93,923.58 295.124,932.273 325.514,938.263" style="stroke:#181818;stroke-width:1;" fill="none" id="Admin-to-UC12"/><polygon points="330.42,939.23,322.363,933.565,325.514,938.263,320.816,941.414,330.42,939.23" fill="#181818" style="stroke:#181818;stroke-width:1;stroke-linejoin:miter;stroke-miterlimit:10;"/></g><!--link Admin to UC02X--><g class="link" data-entity-1="ent0003" data-entity-2="ent0007" id="lnk43" data-source-line="52" data-link-type="dependency"><path d="M108.29,805.57 C117.8,872.77 147.96,1009.81 239.31,1069 C415.91,1183.44 678.55,1046.355 776.08,987.435" style="stroke:#181818;stroke-width:1;" fill="none" id="Admin-to-UC02X"/><polygon points="780.36,984.85,770.588,986.08,776.08,987.435,774.725,992.928,780.36,984.85" fill="#181818" style="stroke:#181818;stroke-width:1;stroke-linejoin:miter;stroke-miterlimit:10;"/></g><!--reverse link UC02 to UC02X--><g class="link" data-entity-1="ent0006" data-entity-2="ent0007" id="lnk44" data-source-line="53" data-link-type="dependency"><path d="M508.056,791.662 C534.006,798.032 557.76,805.28 582.91,816 C660.26,848.97 741.91,904.89 785.61,936.79" style="stroke:#181818;stroke-width:1;stroke-dasharray:7,7;" fill="none" id="UC02-backto-UC02X"/><polygon points="503.2,790.47,510.987,796.5,508.056,791.662,512.894,788.731,503.2,790.47" fill="#181818" style="stroke:#181818;stroke-width:1;stroke-linejoin:miter;stroke-miterlimit:10;"/><text x="613.91" y="827.817" fill="#000" font-size="13" textLength="61.185">«extend»</text></g><?plantuml-src PLJBRjim4BppAnO-EGSBblmE30D6MkJI0WNQ0hco4YqHaKXZIRLkYtvCymlz1FzObx8fY_H5mWvdPeVKKhKuMB0QK9QLXKAYoAtKYfbNgOuSUGD7dh_oKdosFsi1RfchiXO3WgbueNz8LSA1rqOmndEh4KOVDRsaiHp6g6ln20NAxm8VHi0Dz8kU_InGA2iyj-6Acbx9rpLFtHUDLAH5wejUm1rueNVhZFLPOVH5846j6S5l1j0QaND3yDUdQPh0lhNaBdEE4oCw0uT7l2o19rvmrnIXyU4zEnkozqehsSXVGoACFpn_UlVGyryY-zdGlhnirvDd4NS-vDOwvpMCZrfPtTlF8yKYeVDMbkYehP2ewKEV_wBKNh281Ci4tfz4tWubxkENyjArqjZfZJTOHWOhogYHXaeEoBr1SHEk8k6QEgjS80QTfJfeR0WgI7z-KxdiZtuT6MnSPsNQscMdKwg-QOw5Psz2TZeTiYjd_WzbxbgAqr4ZeLTbEesKD3ZTM58Kf3k2vxT6MEmtbaO3b6R3Jhmjf9iCluiqOtyOkrsOoMHt6S8xQ7aFhU-XpHr4-Pc_Ohrx16GnC8-1HGoiOc0T0vi8e20Ha3BMtTXRhg3Cmd8MblEmN8JbAYpNORa9IWeMb66CD8f1DzWzOPiabn8UORiL9_gL5BlTVm00?></g></svg>