<svg xmlns="http://www.w3.org/2000/svg" xmlns:xlink="http://www.w3.org/1999/xlink" contentStyleType="text/css" data-diagram-type="DESCRIPTION" height="1028px" preserveAspectRatio="none" style="width:567px;height:1028px;background:#FFFFFF;" version="1.1" viewBox="0 0 567 1028" width="567px" zoomAndPan="magnify"><?plantuml 1.2026.6?><defs/><g><!--cluster StopTime--><g class="cluster" data-qualified-name="StopTime" data-source-line="9" id="ent0004"><rect fill="none" height="1007" rx="2.5" ry="2.5" style="stroke:#181818;stroke-width:1;" width="325.11" x="228.4" y="7"/><text fill="#000000" font-family="sans-serif" font-size="14" font-weight="700" lengthAdjust="spacing" textLength="60.9277" x="360.4911" y="19.5">StopTime</text></g><!--entity UC01--><g class="entity" data-qualified-name="StopTime.UC01" data-source-line="10" id="ent0005"><ellipse cx="390.9553" cy="330.9951" fill="#F1F1F1" rx="75.3753" ry="17.4751" style="stroke:#181818;stroke-width:0.5;"/><text fill="#000000" font-family="sans-serif" font-size="14" lengthAdjust="spacing" textLength="126.6995" x="327.6055" y="334.495">UC01. Autenticar-se</text></g><!--entity UC02--><g class="entity" data-qualified-name="StopTime.UC02" data-source-line="11" id="ent0006"><ellipse cx="390.9559" cy="824.0032" fill="#F1F1F1" rx="96.2659" ry="21.6532" style="stroke:#181818;stroke-width:0.5;"/><text fill="#000000" font-family="sans-serif" font-size="14" lengthAdjust="spacing" textLength="172.8993" x="304.5063" y="827.5032">UC02. Cadastrar motorista</text></g><!--entity UC03--><g class="entity" data-qualified-name="StopTime.UC03" data-source-line="12" id="ent0007"><ellipse cx="390.9561" cy="976.9972" fill="#F1F1F1" rx="91.0361" ry="20.6072" style="stroke:#181818;stroke-width:0.5;"/><text fill="#000000" font-family="sans-serif" font-size="14" lengthAdjust="spacing" textLength="161.5594" x="310.1764" y="980.4972">UC03. Cadastrar gerente</text></g><!--entity UC04--><g class="entity" data-qualified-name="StopTime.UC04" data-source-line="13" id="ent0008"><ellipse cx="390.9626" cy="576.0045" fill="#F1F1F1" rx="106.1726" ry="23.6345" style="stroke:#181818;stroke-width:0.5;"/><text fill="#000000" font-family="sans-serif" font-size="14" lengthAdjust="spacing" textLength="194.1093" x="293.908" y="579.5045">UC04. Cadastrar local (ponto)</text></g><!--entity UC05--><g class="entity" data-qualified-name="StopTime.UC05" data-source-line="14" id="ent0009"><ellipse cx="390.9614" cy="495.0043" fill="#F1F1F1" rx="98.8214" ry="22.1643" style="stroke:#181818;stroke-width:0.5;"/><text fill="#000000" font-family="sans-serif" font-size="14" lengthAdjust="spacing" textLength="178.4013" x="301.7608" y="498.5043">UC05. Montar roteiro di&#225;rio</text></g><!--entity UC06--><g class="entity" data-qualified-name="StopTime.UC06" data-source-line="15" id="ent0010"><ellipse cx="390.96" cy="70" fill="#F1F1F1" rx="144.2" ry="31.24" style="stroke:#181818;stroke-width:0.5;"/><text fill="#000000" font-family="sans-serif" font-size="14" lengthAdjust="spacing" textLength="273.587" x="254.1665" y="73.5">UC06. Executar roteiro e registrar hor&#225;rios</text></g><!--entity UC07--><g class="entity" data-qualified-name="StopTime.UC07" data-source-line="16" id="ent0011"><ellipse cx="390.9562" cy="660.9992" fill="#F1F1F1" rx="121.0962" ry="26.6192" style="stroke:#181818;stroke-width:0.5;"/><text fill="#000000" font-family="sans-serif" font-size="14" lengthAdjust="spacing" textLength="225.5812" x="278.1656" y="664.4992">UC07. Corrigir hor&#225;rios registrados</text></g><!--entity UC08--><g class="entity" data-qualified-name="StopTime.UC08" data-source-line="17" id="ent0012"><ellipse cx="390.9645" cy="247.0009" fill="#F1F1F1" rx="146.5545" ry="31.7109" style="stroke:#181818;stroke-width:0.5;"/><text fill="#000000" font-family="sans-serif" font-size="14" lengthAdjust="spacing" textLength="278.4449" x="251.742" y="250.5009">UC08. Encerrar roteiro e informar dist&#226;ncia</text></g><!--entity UC09--><g class="entity" data-qualified-name="StopTime.UC09" data-source-line="18" id="ent0013"><ellipse cx="390.9583" cy="158.0017" fill="#F1F1F1" rx="98.9583" ry="22.1917" style="stroke:#181818;stroke-width:0.5;"/><text fill="#000000" font-family="sans-serif" font-size="14" lengthAdjust="spacing" textLength="178.6953" x="301.6106" y="161.5016">UC09. Consultar dashboard</text></g><!--entity UC10--><g class="entity" data-qualified-name="StopTime.UC10" data-source-line="19" id="ent0014"><ellipse cx="390.9574" cy="411.0015" fill="#F1F1F1" rx="123.2574" ry="27.0515" style="stroke:#181818;stroke-width:0.5;"/><text fill="#000000" font-family="sans-serif" font-size="14" lengthAdjust="spacing" textLength="230.1031" x="275.9059" y="414.5015">UC10. Consultar hist&#243;rico e exportar</text></g><!--entity UC11--><g class="entity" data-qualified-name="StopTime.UC11" data-source-line="20" id="ent0015"><ellipse cx="390.9551" cy="744.999" fill="#F1F1F1" rx="99.2451" ry="22.249" style="stroke:#181818;stroke-width:0.5;"/><text fill="#000000" font-family="sans-serif" font-size="14" lengthAdjust="spacing" textLength="179.3113" x="301.2995" y="748.499">UC11. Gerenciar par&#226;metros</text></g><!--entity UC12--><g class="entity" data-qualified-name="StopTime.UC12" data-source-line="21" id="ent0016"><ellipse cx="390.9559" cy="900.9992" fill="#F1F1F1" rx="91.3959" ry="20.6792" style="stroke:#181818;stroke-width:0.5;"/><text fill="#000000" font-family="sans-serif" font-size="14" lengthAdjust="spacing" textLength="162.3434" x="309.7842" y="904.4991">UC12. Consultar auditoria</text></g><!--entity Motorista--><g class="entity" data-qualified-name="Motorista" data-source-line="5" id="ent0001"><ellipse cx="95.1977" cy="218.5" fill="#F1F1F1" rx="8" ry="8" style="stroke:#181818;stroke-width:0.5;"/><path d="M95.1977,226.5 L95.1977,253.5 M82.1977,234.5 L108.1977,234.5 M95.1977,253.5 L82.1977,268.5 M95.1977,253.5 L108.1977,268.5" fill="none" style="stroke:#181818;stroke-width:0.5;"/><text fill="#000000" font-family="sans-serif" font-size="14" lengthAdjust="spacing" textLength="146.0755" x="22.16" y="280.5">Motorista (role: driver)</text></g><!--entity Gerente--><g class="entity" data-qualified-name="Gerente" data-source-line="6" id="ent0002"><ellipse cx="95.1957" cy="452.5" fill="#F1F1F1" rx="8" ry="8" style="stroke:#181818;stroke-width:0.5;"/><path d="M95.1957,460.5 L95.1957,487.5 M82.1957,468.5 L108.1957,468.5 M95.1957,487.5 L82.1957,502.5 M95.1957,487.5 L108.1957,502.5" fill="none" style="stroke:#181818;stroke-width:0.5;"/><text fill="#000000" font-family="sans-serif" font-size="14" lengthAdjust="spacing" textLength="157.1914" x="16.6" y="514.5">Gerente (role: manager)</text></g><!--entity Admin--><g class="entity" data-qualified-name="Admin" data-source-line="7" id="ent0003"><ellipse cx="95.2007" cy="561.5" fill="#F1F1F1" rx="8" ry="8" style="stroke:#181818;stroke-width:0.5;"/><path d="M95.2007,569.5 L95.2007,596.5 M82.2007,577.5 L108.2007,577.5 M95.2007,596.5 L82.2007,611.5 M95.2007,596.5 L108.2007,611.5" fill="none" style="stroke:#181818;stroke-width:0.5;"/><text fill="#000000" font-family="sans-serif" font-size="14" lengthAdjust="spacing" textLength="178.4013" x="6" y="623.5">Administrador (role: admin)</text></g><!--link Motorista to UC01--><g class="link" data-entity-1="ent0001" data-entity-2="ent0005" data-link-type="dependency" data-source-line="24" id="lnk17"><path d="M168.69,278.02 C185.48,284.52 203.41,290.93 220.4,296 C255.69,306.52 291.1124,314.0761 323.5924,320.0461" fill="none" id="Motorista-to-UC01" style="stroke:#181818;stroke-width:1;"/><polygon fill="#181818" points="328.51,320.95,320.3814,315.3889,323.5924,320.0461,318.9352,323.2571,328.51,320.95" style="stroke:#181818;stroke-width:1;stroke-linejoin:miter;stroke-miterlimit:10;"/></g><!--link Motorista to UC06--><g class="link" data-entity-1="ent0001" data-entity-2="ent0010" data-link-type="dependency" data-source-line="25" id="lnk18"><path d="M123.26,209.54 C146.07,180.55 181.21,141.5 220.4,118 C239.42,106.59 256.4986,99.2945 278.0486,92.5445" fill="none" id="Motorista-to-UC06" style="stroke:#181818;stroke-width:1;"/><polygon fill="#181818" points="282.82,91.05,273.0358,89.923,278.0486,92.5445,275.4271,97.5573,282.82,91.05" style="stroke:#181818;stroke-width:1;stroke-linejoin:miter;stroke-miterlimit:10;"/></g><!--link Motorista to UC08--><g class="link" data-entity-1="ent0001" data-entity-2="ent0012" data-link-type="dependency" data-source-line="26" id="lnk19"><path d="M168.44,247 C191.46,247 212.81,247 239.11,247" fill="none" id="Motorista-to-UC08" style="stroke:#181818;stroke-width:1;"/><polygon fill="#181818" points="244.11,247,235.11,243,239.11,247,235.11,251,244.11,247" style="stroke:#181818;stroke-width:1;stroke-linejoin:miter;stroke-miterlimit:10;"/></g><!--link Motorista to UC09--><g class="link" data-entity-1="ent0001" data-entity-2="ent0013" data-link-type="dependency" data-source-line="27" id="lnk20"><path d="M168.47,216.46 C185.35,209.9 203.37,203.34 220.4,198 C251.43,188.28 281.4108,180.7626 311.4208,174.0426" fill="none" id="Motorista-to-UC09" style="stroke:#181818;stroke-width:1;"/><polygon fill="#181818" points="316.3,172.95,306.6434,171.0133,311.4208,174.0426,308.3916,178.82,316.3,172.95" style="stroke:#181818;stroke-width:1;stroke-linejoin:miter;stroke-miterlimit:10;"/></g><!--link Motorista to UC10--><g class="link" data-entity-1="ent0001" data-entity-2="ent0014" data-link-type="dependency" data-source-line="28" id="lnk21"><path d="M126.16,284.42 C149.26,310.89 183.43,345.24 220.4,366 C242.57,378.45 263.4919,386.2703 288.1219,392.9003" fill="none" id="Motorista-to-UC10" style="stroke:#181818;stroke-width:1;"/><polygon fill="#181818" points="292.95,394.2,285.2991,387.9981,288.1219,392.9003,283.2196,395.7231,292.95,394.2" style="stroke:#181818;stroke-width:1;stroke-linejoin:miter;stroke-miterlimit:10;"/></g><!--link Gerente to UC01--><g class="link" data-entity-1="ent0002" data-entity-2="ent0005" data-link-type="dependency" data-source-line="30" id="lnk22"><path d="M126.57,443.71 C149.62,417.92 183.56,384.96 220.4,366 C250.87,350.32 282.8761,342.4171 314.5061,337.6371" fill="none" id="Gerente-to-UC01" style="stroke:#181818;stroke-width:1;"/><polygon fill="#181818" points="319.45,336.89,309.9533,334.2797,314.5061,337.6371,311.1487,342.1899,319.45,336.89" style="stroke:#181818;stroke-width:1;stroke-linejoin:miter;stroke-miterlimit:10;"/></g><!--link Gerente to UC02--><g class="link" data-entity-1="ent0002" data-entity-2="ent0006" data-link-type="dependency" data-source-line="31" id="lnk23"><path d="M168.96,518.37 C174.85,523.64 180.16,529.5 184.4,536 C245.53,629.63 144.66,702.74 220.4,785 C239.53,805.78 262.3913,815.6289 289.9513,820.9689" fill="none" id="Gerente-to-UC02" style="stroke:#181818;stroke-width:1;"/><polygon fill="#181818" points="294.86,821.92,286.7852,816.281,289.9513,820.9689,285.2634,824.135,294.86,821.92" style="stroke:#181818;stroke-width:1;stroke-linejoin:miter;stroke-miterlimit:10;"/></g><!--link Gerente to UC04--><g class="link" data-entity-1="ent0002" data-entity-2="ent0008" data-link-type="dependency" data-source-line="32" id="lnk24"><path d="M174.24,517.37 C189.37,523.72 205.24,529.91 220.4,535 C249.69,544.83 277.678,552.2058 306.628,558.8858" fill="none" id="Gerente-to-UC04" style="stroke:#181818;stroke-width:1;"/><polygon fill="#181818" points="311.5,560.01,303.6298,554.0889,306.628,558.8858,301.8311,561.8841,311.5,560.01" style="stroke:#181818;stroke-width:1;stroke-linejoin:miter;stroke-miterlimit:10;"/></g><!--link Gerente to UC05--><g class="link" data-entity-1="ent0002" data-entity-2="ent0009" data-link-type="dependency" data-source-line="33" id="lnk25"><path d="M174.15,484.71 C210.86,486.46 250.0157,488.3317 288.7857,490.1817" fill="none" id="Gerente-to-UC05" style="stroke:#181818;stroke-width:1;"/><polygon fill="#181818" points="293.78,490.42,284.9809,485.9956,288.7857,490.1817,284.5996,493.9865,293.78,490.42" style="stroke:#181818;stroke-width:1;stroke-linejoin:miter;stroke-miterlimit:10;"/></g><!--link Gerente to UC07--><g class="link" data-entity-1="ent0002" data-entity-2="ent0011" data-link-type="dependency" data-source-line="34" id="lnk26"><path d="M165.45,518.32 C172.34,523.7 178.84,529.6 184.4,536 C210.25,565.73 190.35,591.52 220.4,617 C238.15,632.05 255.6318,640.6238 278.1518,647.2238" fill="none" id="Gerente-to-UC07" style="stroke:#181818;stroke-width:1;"/><polygon fill="#181818" points="282.95,648.63,275.4382,642.2603,278.1518,647.2238,273.1883,649.9374,282.95,648.63" style="stroke:#181818;stroke-width:1;stroke-linejoin:miter;stroke-miterlimit:10;"/></g><!--link Gerente to UC08--><g class="link" data-entity-1="ent0002" data-entity-2="ent0012" data-link-type="dependency" data-source-line="35" id="lnk27"><path d="M111.7,443.65 C131.04,401.61 168.06,334.2 220.4,296 C237.36,283.63 252.6498,275.9904 272.8798,269.0604" fill="none" id="Gerente-to-UC08" style="stroke:#181818;stroke-width:1;"/><polygon fill="#181818" points="277.61,267.44,267.7994,266.5725,272.8798,269.0604,270.392,274.1408,277.61,267.44" style="stroke:#181818;stroke-width:1;stroke-linejoin:miter;stroke-miterlimit:10;"/></g><!--link Gerente to UC09--><g class="link" data-entity-1="ent0002" data-entity-2="ent0013" data-link-type="dependency" data-source-line="36" id="lnk28"><path d="M116.12,443.68 C134.93,407.69 163.33,351.41 184.4,301 C203.1,256.26 184.37,230.45 220.4,198 C240.85,179.58 263.3006,170.2459 290.0406,164.5259" fill="none" id="Gerente-to-UC09" style="stroke:#181818;stroke-width:1;"/><polygon fill="#181818" points="294.93,163.48,285.2924,161.4511,290.0406,164.5259,286.9658,169.2741,294.93,163.48" style="stroke:#181818;stroke-width:1;stroke-linejoin:miter;stroke-miterlimit:10;"/></g><!--link Gerente to UC10--><g class="link" data-entity-1="ent0002" data-entity-2="ent0014" data-link-type="dependency" data-source-line="37" id="lnk29"><path d="M174.15,462.43 C214.77,452.74 259.6364,442.0599 301.1064,432.1699" fill="none" id="Gerente-to-UC10" style="stroke:#181818;stroke-width:1;"/><polygon fill="#181818" points="305.97,431.01,296.2876,429.2069,301.1064,432.1699,298.1434,436.9887,305.97,431.01" style="stroke:#181818;stroke-width:1;stroke-linejoin:miter;stroke-miterlimit:10;"/></g><!--link Gerente to UC11--><g class="link" data-entity-1="ent0002" data-entity-2="ent0015" data-link-type="dependency" data-source-line="38" id="lnk30"><path d="M168.1,518.31 C174.25,523.61 179.84,529.5 184.4,536 C228.49,598.88 166.69,650.11 220.4,705 C239.54,724.56 261.4506,734.2442 288.1006,739.9442" fill="none" id="Gerente-to-UC11" style="stroke:#181818;stroke-width:1;"/><polygon fill="#181818" points="292.99,740.99,285.0257,735.1961,288.1006,739.9442,283.3524,743.0192,292.99,740.99" style="stroke:#181818;stroke-width:1;stroke-linejoin:miter;stroke-miterlimit:10;"/></g><!--link Admin to UC01--><g class="link" data-entity-1="ent0003" data-entity-2="ent0005" data-link-type="dependency" data-source-line="40" id="lnk31"><path d="M168.1,552.69 C174.25,547.39 179.84,541.5 184.4,535 C228.49,472.12 165.93,420.13 220.4,366 C245.24,341.32 277.61,332.2969 310.93,329.3069" fill="none" id="Admin-to-UC01" style="stroke:#181818;stroke-width:1;"/><polygon fill="#181818" points="315.91,328.86,306.5885,325.6804,310.93,329.3069,307.3035,333.6484,315.91,328.86" style="stroke:#181818;stroke-width:1;stroke-linejoin:miter;stroke-miterlimit:10;"/></g><!--link Admin to UC02--><g class="link" data-entity-1="ent0003" data-entity-2="ent0006" data-link-type="dependency" data-source-line="41" id="lnk32"><path d="M109.64,627.12 C127.75,671.7 164.34,745.41 220.4,785 C243.59,801.38 267.7109,809.9905 295.1609,815.5905" fill="none" id="Admin-to-UC02" style="stroke:#181818;stroke-width:1;"/><polygon fill="#181818" points="300.06,816.59,292.0412,810.8717,295.1609,815.5905,290.4421,818.7103,300.06,816.59" style="stroke:#181818;stroke-width:1;stroke-linejoin:miter;stroke-miterlimit:10;"/></g><!--link Admin to UC03--><g class="link" data-entity-1="ent0003" data-entity-2="ent0007" data-link-type="dependency" data-source-line="42" id="lnk33"><path d="M98.13,627.5 C103.95,699.33 127.23,856.51 220.4,939 C242.42,958.5 267.3381,967.7799 295.8581,972.8799" fill="none" id="Admin-to-UC03" style="stroke:#181818;stroke-width:1;"/><polygon fill="#181818" points="300.78,973.76,292.6247,968.2382,295.8581,972.8799,291.2164,976.1133,300.78,973.76" style="stroke:#181818;stroke-width:1;stroke-linejoin:miter;stroke-miterlimit:10;"/></g><!--link Admin to UC04--><g class="link" data-entity-1="ent0003" data-entity-2="ent0008" data-link-type="dependency" data-source-line="43" id="lnk34"><path d="M184.74,585.78 C216.83,584.25 248.3757,582.7488 281.6357,581.1588" fill="none" id="Admin-to-UC04" style="stroke:#181818;stroke-width:1;"/><polygon fill="#181818" points="286.63,580.92,277.4493,577.3543,281.6357,581.1588,277.8313,585.3452,286.63,580.92" style="stroke:#181818;stroke-width:1;stroke-linejoin:miter;stroke-miterlimit:10;"/></g><!--link Admin to UC05--><g class="link" data-entity-1="ent0003" data-entity-2="ent0009" data-link-type="dependency" data-source-line="44" id="lnk35"><path d="M174.84,552.56 C189.78,546.2 205.42,540.03 220.4,535 C250.93,524.74 280.5279,517.1695 310.3779,510.5695" fill="none" id="Admin-to-UC05" style="stroke:#181818;stroke-width:1;"/><polygon fill="#181818" points="315.26,509.49,305.6087,507.5274,310.3779,510.5695,307.3358,515.3387,315.26,509.49" style="stroke:#181818;stroke-width:1;stroke-linejoin:miter;stroke-miterlimit:10;"/></g><!--link Admin to UC07--><g class="link" data-entity-1="ent0003" data-entity-2="ent0011" data-link-type="dependency" data-source-line="45" id="lnk36"><path d="M184.74,611.4 C223.93,620.87 264.88,630.7649 303.26,640.0449" fill="none" id="Admin-to-UC07" style="stroke:#181818;stroke-width:1;"/><polygon fill="#181818" points="308.12,641.22,300.3122,635.2169,303.26,640.0449,298.432,642.9928,308.12,641.22" style="stroke:#181818;stroke-width:1;stroke-linejoin:miter;stroke-miterlimit:10;"/></g><!--link Admin to UC08--><g class="link" data-entity-1="ent0003" data-entity-2="ent0012" data-link-type="dependency" data-source-line="46" id="lnk37"><path d="M168.92,552.6 C174.82,547.34 180.14,541.48 184.4,535 C243.39,445.23 149.61,376.8 220.4,296 C232.92,281.71 244.7007,273.3836 262.3707,266.0636" fill="none" id="Admin-to-UC08" style="stroke:#181818;stroke-width:1;"/><polygon fill="#181818" points="266.99,264.15,257.1443,263.899,262.3707,266.0636,260.2061,271.2899,266.99,264.15" style="stroke:#181818;stroke-width:1;stroke-linejoin:miter;stroke-miterlimit:10;"/></g><!--link Admin to UC09--><g class="link" data-entity-1="ent0003" data-entity-2="ent0013" data-link-type="dependency" data-source-line="47" id="lnk38"><path d="M169.21,552.79 C175.06,547.49 180.28,541.58 184.4,535 C224.4,471.18 170.58,254.48 220.4,198 C238.71,177.25 260.6947,167.2379 287.6747,161.6279" fill="none" id="Admin-to-UC09" style="stroke:#181818;stroke-width:1;"/><polygon fill="#181818" points="292.57,160.61,282.9442,158.526,287.6747,161.6279,284.5728,166.3584,292.57,160.61" style="stroke:#181818;stroke-width:1;stroke-linejoin:miter;stroke-miterlimit:10;"/></g><!--link Admin to UC10--><g class="link" data-entity-1="ent0003" data-entity-2="ent0014" data-link-type="dependency" data-source-line="48" id="lnk39"><path d="M165.42,552.65 C172.32,547.28 178.82,541.39 184.4,535 C210.05,505.64 190.6,480.15 220.4,455 C237.83,440.29 254.8096,431.8526 276.8796,425.2526" fill="none" id="Admin-to-UC10" style="stroke:#181818;stroke-width:1;"/><polygon fill="#181818" points="281.67,423.82,271.9013,422.5663,276.8796,425.2526,274.1934,430.2309,281.67,423.82" style="stroke:#181818;stroke-width:1;stroke-linejoin:miter;stroke-miterlimit:10;"/></g><!--link Admin to UC11--><g class="link" data-entity-1="ent0003" data-entity-2="ent0015" data-link-type="dependency" data-source-line="49" id="lnk40"><path d="M126.98,627.25 C150.11,652.85 183.96,685.59 220.4,705 C246.16,718.72 271.7001,726.7365 299.6301,732.6965" fill="none" id="Admin-to-UC11" style="stroke:#181818;stroke-width:1;"/><polygon fill="#181818" points="304.52,733.74,296.5529,727.9498,299.6301,732.6965,294.8834,735.7737,304.52,733.74" style="stroke:#181818;stroke-width:1;stroke-linejoin:miter;stroke-miterlimit:10;"/></g><!--link Admin to UC12--><g class="link" data-entity-1="ent0003" data-entity-2="ent0016" data-link-type="dependency" data-source-line="50" id="lnk41"><path d="M102.31,627.33 C114.06,686.74 145.63,802.27 220.4,863 C243.11,881.45 268.0426,890.465 296.3526,895.675" fill="none" id="Admin-to-UC12" style="stroke:#181818;stroke-width:1;"/><polygon fill="#181818" points="301.27,896.58,293.1426,891.0171,296.3526,895.675,291.6947,898.885,301.27,896.58" style="stroke:#181818;stroke-width:1;stroke-linejoin:miter;stroke-miterlimit:10;"/></g><?plantuml-src PLDBRjim5Dpp50zU9GiRbloJkYWG14LNMIKz04lH4X6951wfDa7HmoHNw15yiJxAfYpIAs66Csz6r5ChZmwS0LHruw1IA8LJHZFxgdJFaNVGS_7AQ_ditbi9_fZhkfKpWMruPNuhNSEHjrOoneKp28idGmzb7OSxDAty0XMgNnBl5y0jJ8T1_LsYr4u6RSSrXLx4bxCWVQWwfScBb8l1m3rvbe_dZ4rTOV7iJF-YEhc0FmnWi59mI_IFntMsWeV1qNGbE2wj70TuFj7bAtZa5VUX25qe7zHvejxCrVMvVT1k4krshcsDu2tSzKOxSnySsyInMz7rQKToD4ugDFJTJX-eJ33i4iD-1T_Uf1Zc5lyjQtLERGoEVXi6x9C11-fea7P4pSJJWEfgF2J6WfAra8XHij97WnrH5VbFdrgewIQBP43faxKTMj-TRgdvQJXMGLt6wcmzLpT--3zKmaVAjzuWiHTdjawSj0VZbb4Lf9N7qsSd7KulbYNxaENp93vKocz4U8iiPtyPk-x_Sldrl5CtrFwMAcwfyeQY_YpyCTFqXCXJOfiIkvGuf4IH4cL2K964o1WRVy1hhmZcCTp4S1l3NGmFCInYM4QGYaKmhf7b_m40?></g></svg>