<svg xmlns="http://www.w3.org/2000/svg" xmlns:xlink="http://www.w3.org/1999/xlink" version="1.1" data-diagram-type="CLASS" style="width:544px;height:1237px;background:#FFFFFF;" width="544px" height="1237px" viewBox="0 0 544 1237" zoomAndPan="magnify" preserveAspectRatio="none" contentStyleType="text/css"><?plantuml 1.2026.8?><defs/><g font-family="sans-serif" lengthAdjust="spacing"><!--class User--><g class="entity" data-qualified-name="User" id="ent0001" data-source-line="6"><rect x="166.5" y="216.07" width="55.812" height="115.781" fill="#F1F1F1" style="stroke:#181818;stroke-width:0.5;" rx="2.5" ry="2.5"/><text x="178.451" y="234.065" fill="#000" font-size="14" textLength="31.91">User</text><line x1="167.5" y1="242.367" x2="221.312" y2="242.367" style="stroke:#181818;stroke-width:0.5;"/><text x="172.5" y="259.362" fill="#000" font-size="14" textLength="39.703">name</text><text x="172.5" y="275.659" fill="#000" font-size="14" textLength="38.609">email</text><text x="172.5" y="291.956" fill="#000" font-size="14" textLength="43.812">phone</text><text x="172.5" y="308.253" fill="#000" font-size="14" textLength="26.824">role</text><text x="172.5" y="324.549" fill="#000" font-size="14" textLength="42.554">active</text></g><!--class Driver--><g class="entity" data-qualified-name="Driver" id="ent0002" data-source-line="14"><rect x="120.13" y="496.15" width="108.564" height="99.484" fill="#F1F1F1" style="stroke:#181818;stroke-width:0.5;" rx="2.5" ry="2.5"/><text x="152.872" y="514.145" fill="#000" font-size="14" textLength="43.08">Driver</text><line x1="121.13" y1="522.447" x2="227.694" y2="522.447" style="stroke:#181818;stroke-width:0.5;"/><text x="126.13" y="539.442" fill="#000" font-size="14" textLength="70.636">document</text><text x="126.13" y="555.739" fill="#000" font-size="14" textLength="96.564">vehicle_name</text><text x="126.13" y="572.036" fill="#000" font-size="14" textLength="92.319">vehicle_plate</text><text x="126.13" y="588.333" fill="#000" font-size="14" textLength="62.891">km_per_l</text></g><!--class Manager--><g class="entity" data-qualified-name="Manager" id="ent0003" data-source-line="21"><rect x="227.73" y="392.85" width="67.366" height="26.297" fill="#F1F1F1" style="stroke:#181818;stroke-width:0.5;" rx="2.5" ry="2.5"/><text x="230.73" y="410.845" fill="#000" font-size="14" textLength="61.366">Manager</text></g><!--class Route--><g class="entity" data-qualified-name="Route" id="ent0004" data-source-line="23"><rect x="86.4" y="672.64" width="176.021" height="132.078" fill="#F1F1F1" style="stroke:#181818;stroke-width:0.5;" rx="2.5" ry="2.5"/><text x="153.776" y="690.635" fill="#000" font-size="14" textLength="41.269">Route</text><line x1="87.4" y1="698.937" x2="261.421" y2="698.937" style="stroke:#181818;stroke-width:0.5;"/><text x="92.4" y="715.932" fill="#000" font-size="14" textLength="75.865">route_date</text><text x="92.4" y="732.229" fill="#000" font-size="14" textLength="88.067">distance_km</text><text x="92.4" y="748.526" fill="#000" font-size="14" textLength="43.019">status</text><text x="92.4" y="764.823" fill="#000" font-size="14" textLength="164.021">/total_stopped_minutes</text><text x="92.4" y="781.119" fill="#000" font-size="14" textLength="118.501">/journey_percent</text><text x="92.4" y="797.416" fill="#000" font-size="14" textLength="111.255">/estimated_cost</text></g><!--class Stop--><g class="entity" data-qualified-name="Stop" id="ent0005" data-source-line="32"><rect x="7" y="881.71" width="148.821" height="164.672" fill="#F1F1F1" style="stroke:#181818;stroke-width:0.5;" rx="2.5" ry="2.5"/><text x="65.497" y="899.705" fill="#000" font-size="14" textLength="31.828">Stop</text><line x1="8" y1="908.007" x2="154.821" y2="908.007" style="stroke:#181818;stroke-width:0.5;"/><text x="13" y="925.002" fill="#000" font-size="14" textLength="74.813">stop_order</text><text x="13" y="941.299" fill="#000" font-size="14" textLength="65.803">arrival_at</text><text x="13" y="957.596" fill="#000" font-size="14" textLength="90.521">departure_at</text><text x="13" y="973.893" fill="#000" font-size="14" textLength="99.176">/stop_seconds</text><text x="13" y="990.189" fill="#000" font-size="14" textLength="104.713">label_snapshot</text><text x="13" y="1006.486" fill="#000" font-size="14" textLength="126.164">address_snapshot</text><text x="13" y="1022.783" fill="#000" font-size="14" textLength="124.564">latitude_snapshot</text><text x="13" y="1039.08" fill="#000" font-size="14" textLength="136.821">longitude_snapshot</text></g><!--class Location--><g class="entity" data-qualified-name="Location" id="ent0006" data-source-line="43"><rect x="42.43" y="1123.39" width="77.967" height="99.484" fill="#F1F1F1" style="stroke:#181818;stroke-width:0.5;" rx="2.5" ry="2.5"/><text x="51.684" y="1141.385" fill="#000" font-size="14" textLength="59.459">Location</text><line x1="43.43" y1="1149.687" x2="119.397" y2="1149.687" style="stroke:#181818;stroke-width:0.5;"/><text x="48.43" y="1166.682" fill="#000" font-size="14" textLength="33.858">label</text><text x="48.43" y="1182.979" fill="#000" font-size="14" textLength="55.31">address</text><text x="48.43" y="1199.276" fill="#000" font-size="14" textLength="53.71">latitude</text><text x="48.43" y="1215.573" fill="#000" font-size="14" textLength="65.967">longitude</text></g><!--class Parameter--><g class="entity" data-qualified-name="Parameter" id="ent0007" data-source-line="50"><rect x="227.68" y="922.46" width="79.466" height="83.188" fill="#F1F1F1" style="stroke:#181818;stroke-width:0.5;" rx="2.5" ry="2.5"/><text x="230.68" y="940.455" fill="#000" font-size="14" textLength="73.466">Parameter</text><line x1="228.68" y1="948.757" x2="306.146" y2="948.757" style="stroke:#181818;stroke-width:0.5;"/><text x="233.68" y="965.752" fill="#000" font-size="14" textLength="25.006">key</text><text x="233.68" y="982.049" fill="#000" font-size="14" textLength="38.24">value</text><text x="233.68" y="998.346" fill="#000" font-size="14" textLength="27.125">unit</text></g><!--class AuditEntry--><g class="entity" data-qualified-name="AuditEntry" id="ent0008" data-source-line="56"><rect x="147.68" y="7" width="93.471" height="132.078" fill="#F1F1F1" style="stroke:#181818;stroke-width:0.5;" rx="2.5" ry="2.5"/><text x="157.433" y="24.995" fill="#000" font-size="14" textLength="73.965">AuditEntry</text><line x1="148.68" y1="33.297" x2="240.151" y2="33.297" style="stroke:#181818;stroke-width:0.5;"/><text x="153.68" y="50.292" fill="#000" font-size="14" textLength="14.068">at</text><text x="153.68" y="66.589" fill="#000" font-size="14" textLength="40.64">entity</text><text x="153.68" y="82.886" fill="#000" font-size="14" textLength="60.416">entity_id</text><text x="153.68" y="99.183" fill="#000" font-size="14" textLength="43.094">action</text><text x="153.68" y="115.479" fill="#000" font-size="14" textLength="73.876">old_values</text><text x="153.68" y="131.776" fill="#000" font-size="14" textLength="81.471">new_values</text></g><g class="entity" data-qualified-name="GMN17" id="ent0018" data-source-line="76"><path d="M263.8,518.19 L263.8,573.588 A0,0 0 0 0 263.8,573.588 L529.026,573.588 A0,0 0 0 0 529.026,573.588 L529.026,528.19 L519.026,518.19 L373.96,518.19 L273.39,419.24 L365.96,518.19 L263.8,518.19 A0,0 0 0 0 263.8,518.19" style="stroke:#181818;stroke-width:0.5;" fill="#FEFFDD"/><path d="M519.026,518.19 L519.026,528.19 L529.026,528.19 L519.026,518.19" style="stroke:#181818;stroke-width:0.5;" fill="#FEFFDD"/><text x="269.8" y="535.257" fill="#000" font-size="13" textLength="244.226">Equipe = manager_user_id do Driver:</text><text x="269.8" y="550.39" fill="#000" font-size="13" textLength="170.784">filtro, não regra de acesso</text><text x="269.8" y="565.523" fill="#000" font-size="13" textLength="187.104">(empresa única; decisão D1)</text></g><!--reverse link User to Driver--><g class="link" data-entity-1="ent0001" data-entity-2="ent0002" id="lnk9" data-source-line="65" data-link-type="extension"><path d="M188.84,350.161 C185.24,398.751 181.46,449.79 178.04,495.87" style="stroke:#181818;stroke-width:1;" fill="none" id="User-backto-Driver" codeLine="65"/><polygon points="190.17,332.21,182.856,349.717,194.824,350.604,190.17,332.21" fill="none" style="stroke:#181818;stroke-width:1;stroke-linejoin:miter;stroke-miterlimit:10;"/></g><!--reverse link User to Manager--><g class="link" data-entity-1="ent0001" data-entity-2="ent0003" id="lnk10" data-source-line="66" data-link-type="extension"><path d="M230.878,345.739 C242.828,368.919 247.44,377.89 254.94,392.44" style="stroke:#181818;stroke-width:1;" fill="none" id="User-backto-Manager" codeLine="66"/><polygon points="222.63,329.74,225.545,348.488,236.211,342.99,222.63,329.74" fill="none" style="stroke:#181818;stroke-width:1;stroke-linejoin:miter;stroke-miterlimit:10;"/></g><!--link Driver to Route--><g class="link" data-entity-1="ent0002" data-entity-2="ent0004" id="lnk11" data-source-line="67" data-link-type="dependency"><path d="M174.41,596.02 C174.41,619.21 174.41,642.21 174.41,667.16" style="stroke:#181818;stroke-width:1;" fill="none" id="Driver-to-Route" codeLine="67"/><polygon points="174.41,672.16,178.41,663.16,174.41,667.16,170.41,663.16,174.41,672.16" fill="#181818" style="stroke:#181818;stroke-width:1;stroke-linejoin:miter;stroke-miterlimit:10;"/><text x="175.41" y="638.707" fill="#000" font-size="13" textLength="39.673">drives</text><text x="165.89" y="615.84" fill="#000" font-size="13">1</text><text x="150.226" y="661.601" fill="#000" font-size="13" textLength="23.036">0..*</text></g><!--reverse link Route to Stop--><g class="link" data-entity-1="ent0004" data-entity-2="ent0005" id="lnk12" data-source-line="68" data-link-type="composition"><path d="M88.732,814.575 C81.622,823.775 82.79,824.22 78.41,834.71 C72.36,849.21 69.87,865.46 69.44,881.39" style="stroke:#181818;stroke-width:1;" fill="none" id="Route-backto-Stop" codeLine="68"/><polygon points="96.07,805.08,89.236,807.381,88.732,814.575,95.566,812.273,96.07,805.08" fill="#181818" style="stroke:#181818;stroke-width:1;stroke-linejoin:miter;stroke-miterlimit:10;"/><text x="79.41" y="847.777" fill="#000" font-size="13" textLength="144.822">ordered by stop_order</text><text x="79.593" y="824.775" fill="#000" font-size="13">1</text><text x="44.425" y="870.715" fill="#000" font-size="13" textLength="23.036">1..*</text></g><!--link Stop to Location--><g class="link" data-entity-1="ent0005" data-entity-2="ent0006" id="lnk13" data-source-line="69" data-link-type="dependency"><path d="M81.41,1046.6 C81.41,1072.4 81.41,1095.12 81.41,1117.92" style="stroke:#181818;stroke-width:1;" fill="none" id="Stop-to-Location" codeLine="69"/><polygon points="81.41,1122.92,85.41,1113.92,81.41,1117.92,77.41,1113.92,81.41,1122.92" fill="#181818" style="stroke:#181818;stroke-width:1;stroke-linejoin:miter;stroke-miterlimit:10;"/><text x="82.41" y="1089.457" fill="#000" font-size="13" textLength="33.56">visits</text><text x="57.423" y="1066.412" fill="#000" font-size="13" textLength="23.036">1..*</text><text x="72.89" y="1112.241" fill="#000" font-size="13">1</text></g><!--link Route to Parameter--><g class="link" data-entity-1="ent0004" data-entity-2="ent0007" id="lnk14" data-source-line="70" data-link-type="dependency"><path d="M214.11,805.18 C219.27,814.91 224.21,824.95 228.41,834.71 C240.59,863.06 249.322,891.609 256.152,917.229" style="stroke:#181818;stroke-width:1;stroke-dasharray:7,7;" fill="none" id="Route-to-Parameter" codeLine="70"/><polygon points="257.44,922.06,258.987,912.333,256.152,917.229,251.257,914.394,257.44,922.06" fill="#181818" style="stroke:#181818;stroke-width:1;stroke-linejoin:miter;stroke-miterlimit:10;"/><text x="236.22" y="847.777" fill="#000" font-size="13" textLength="144.873">cost and journey rules</text></g><!--link AuditEntry to User--><g class="link" data-entity-1="ent0008" data-entity-2="ent0001" id="lnk15" data-source-line="71" data-link-type="dependency"><path d="M194.41,139.45 C194.41,164.13 194.41,187 194.41,210.87" style="stroke:#181818;stroke-width:1;" fill="none" id="AuditEntry-to-User" codeLine="71"/><polygon points="194.41,215.87,198.41,206.87,194.41,210.87,190.41,206.87,194.41,215.87" fill="#181818" style="stroke:#181818;stroke-width:1;stroke-linejoin:miter;stroke-miterlimit:10;"/><text x="195.41" y="182.137" fill="#000" font-size="13" textLength="33.509">actor</text><text x="170.225" y="159.146" fill="#000" font-size="13" textLength="23.036">0..*</text><text x="185.94" y="204.951" fill="#000" font-size="13">1</text></g><!--link Manager to Driver--><g class="link" data-entity-1="ent0003" data-entity-2="ent0002" id="lnk16" data-source-line="73" data-link-type="association"><path d="M253.69,419.24 C242.92,436.31 222.76,468.26 205.46,495.68" style="stroke:#181818;stroke-width:1;" fill="none" id="Manager-Driver" codeLine="73"/><text x="234.27" y="462.217" fill="#000" font-size="13" textLength="44.351">equipe</text><text x="222.324" y="439.24" fill="#000" font-size="13" textLength="24.807">0..1</text><text x="185.089" y="485.001" fill="#000" font-size="13" textLength="23.036">0..*</text></g><?plantuml-src NLFBRbCn4DtVhnXb1HL9sks5LghKBf10GbIiBSUU92Qsv-97gl3u6lw2RN-CiQzlSc7bUPmvytGy63_881qeAsEyJocOJKxuNf5_CjyHhhjuXiIzrFHi_0wsqaRizaOZA1EKRJAw8Pt0eTjWY5rNAU5Bn00_EW0l7VA3JXhBxx0dN_H0jZnI9NF4xjSKzX1O7GCrgUpG9nQFk3USJZIkIHsiJ4K_E35W4FP2yr5wkSCmgP-9cwkaeKX2Zt7Qn2IzGd5mhB6SScHXdIX9AsAYOK0jdF4SKnrVAGUFfv9DZPMjCIRZc4uBHJ5TAdZYw9gnq0WAcglXTWFtnzoon6ha0QSSS5JN5HcHTw1BDYito5LuESGz5O3KEc2CSnCFmAIiyHyR-Tr_ndDL7qXn1FbQMKrmuPtHpLakmP_AEM1gwpdWgQn2sbpWsPjPclkiJNhqAPmgjBR7ypBfT1Q4qMtzv5aWgqNbAcLuV9uKfgoNzExdSjcEOsQOrjokPd6pWENo3XRNgzNLecsz1rsyiHlLWhdYqCLDnTGrzL3tWnesf_c-ghC1Ao_7dYVOmz54aoRUrUfkDg0UoZM0z1hQpK38bekOJQPLEH7Nhleo4UAxRPrLKErgWhTMUy1lsGpOTPuu-uPI8WUqFOy4uB42u1RSQ1APC_3O-MCrbfvHMsDJe3VWNtuJ1Dm5oNV9LV114BjVyUVcuv3myiSR9T-oKvbOi0ythpla_ah-lm00?></g></svg>