<svg xmlns="http://www.w3.org/2000/svg" xmlns:xlink="http://www.w3.org/1999/xlink" version="1.1" data-diagram-type="CLASS" style="width:378px;height:1069px;background:#FFFFFF;" width="378px" height="1069px" viewBox="0 0 378 1069" zoomAndPan="magnify" preserveAspectRatio="none" contentStyleType="text/css"><?plantuml 1.2026.8?><defs/><g font-family="sans-serif" lengthAdjust="spacing"><!--class User--><g class="entity" data-qualified-name="User" id="ent0001" data-source-line="6"><rect x="188.68" y="216.08" width="55.812" height="115.781" fill="#F1F1F1" style="stroke:#181818;stroke-width:0.5;" rx="2.5" ry="2.5"/><text x="200.631" y="234.075" fill="#000" font-size="14" textLength="31.91">User</text><line x1="189.68" y1="242.377" x2="243.492" y2="242.377" style="stroke:#181818;stroke-width:0.5;"/><text x="194.68" y="259.372" fill="#000" font-size="14" textLength="39.703">name</text><text x="194.68" y="275.669" fill="#000" font-size="14" textLength="38.609">email</text><text x="194.68" y="291.966" fill="#000" font-size="14" textLength="43.812">phone</text><text x="194.68" y="308.263" fill="#000" font-size="14" textLength="26.824">role</text><text x="194.68" y="324.559" fill="#000" font-size="14" textLength="42.554">active</text></g><!--class Driver--><g class="entity" data-qualified-name="Driver" id="ent0002" data-source-line="14"><rect x="101.31" y="392.86" width="108.564" height="99.484" fill="#F1F1F1" style="stroke:#181818;stroke-width:0.5;" rx="2.5" ry="2.5"/><text x="134.052" y="410.855" fill="#000" font-size="14" textLength="43.08">Driver</text><line x1="102.31" y1="419.157" x2="208.874" y2="419.157" style="stroke:#181818;stroke-width:0.5;"/><text x="107.31" y="436.152" fill="#000" font-size="14" textLength="70.636">document</text><text x="107.31" y="452.449" fill="#000" font-size="14" textLength="96.564">vehicle_name</text><text x="107.31" y="468.746" fill="#000" font-size="14" textLength="92.319">vehicle_plate</text><text x="107.31" y="485.043" fill="#000" font-size="14" textLength="62.891">km_per_l</text></g><!--class Manager--><g class="entity" data-qualified-name="Manager" id="ent0003" data-source-line="21"><rect x="244.9" y="429.45" width="67.366" height="26.297" fill="#F1F1F1" style="stroke:#181818;stroke-width:0.5;" rx="2.5" ry="2.5"/><text x="247.9" y="447.445" fill="#000" font-size="14" textLength="61.366">Manager</text></g><!--class Route--><g class="entity" data-qualified-name="Route" id="ent0004" data-source-line="23"><rect x="67.58" y="569.34" width="176.021" height="132.078" fill="#F1F1F1" style="stroke:#181818;stroke-width:0.5;" rx="2.5" ry="2.5"/><text x="134.956" y="587.335" fill="#000" font-size="14" textLength="41.269">Route</text><line x1="68.58" y1="595.637" x2="242.601" y2="595.637" style="stroke:#181818;stroke-width:0.5;"/><text x="73.58" y="612.632" fill="#000" font-size="14" textLength="75.865">route_date</text><text x="73.58" y="628.929" fill="#000" font-size="14" textLength="88.067">distance_km</text><text x="73.58" y="645.226" fill="#000" font-size="14" textLength="43.019">status</text><text x="73.58" y="661.523" fill="#000" font-size="14" textLength="164.021">/total_stopped_minutes</text><text x="73.58" y="677.819" fill="#000" font-size="14" textLength="118.501">/journey_percent</text><text x="73.58" y="694.116" fill="#000" font-size="14" textLength="111.255">/estimated_cost</text></g><!--class Stop--><g class="entity" data-qualified-name="Stop" id="ent0005" data-source-line="32"><rect x="7" y="778.42" width="111.176" height="99.484" fill="#F1F1F1" style="stroke:#181818;stroke-width:0.5;" rx="2.5" ry="2.5"/><text x="46.674" y="796.415" fill="#000" font-size="14" textLength="31.828">Stop</text><line x1="8" y1="804.717" x2="117.176" y2="804.717" style="stroke:#181818;stroke-width:0.5;"/><text x="13" y="821.712" fill="#000" font-size="14" textLength="74.813">stop_order</text><text x="13" y="838.009" fill="#000" font-size="14" textLength="65.803">arrival_at</text><text x="13" y="854.306" fill="#000" font-size="14" textLength="90.521">departure_at</text><text x="13" y="870.603" fill="#000" font-size="14" textLength="99.176">/stop_seconds</text></g><!--class Location--><g class="entity" data-qualified-name="Location" id="ent0006" data-source-line="39"><rect x="23.6" y="954.91" width="77.967" height="99.484" fill="#F1F1F1" style="stroke:#181818;stroke-width:0.5;" rx="2.5" ry="2.5"/><text x="32.854" y="972.905" fill="#000" font-size="14" textLength="59.459">Location</text><line x1="24.6" y1="981.207" x2="100.567" y2="981.207" style="stroke:#181818;stroke-width:0.5;"/><text x="29.6" y="998.202" fill="#000" font-size="14" textLength="33.858">label</text><text x="29.6" y="1014.499" fill="#000" font-size="14" textLength="55.31">address</text><text x="29.6" y="1030.796" fill="#000" font-size="14" textLength="53.71">latitude</text><text x="29.6" y="1047.093" fill="#000" font-size="14" textLength="65.967">longitude</text></g><!--class Parameter--><g class="entity" data-qualified-name="Parameter" id="ent0007" data-source-line="46"><rect x="208.85" y="786.57" width="79.466" height="83.188" fill="#F1F1F1" style="stroke:#181818;stroke-width:0.5;" rx="2.5" ry="2.5"/><text x="211.85" y="804.565" fill="#000" font-size="14" textLength="73.466">Parameter</text><line x1="209.85" y1="812.867" x2="287.316" y2="812.867" style="stroke:#181818;stroke-width:0.5;"/><text x="214.85" y="829.862" fill="#000" font-size="14" textLength="25.006">key</text><text x="214.85" y="846.159" fill="#000" font-size="14" textLength="38.24">value</text><text x="214.85" y="862.456" fill="#000" font-size="14" textLength="27.125">unit</text></g><!--class AuditEntry--><g class="entity" data-qualified-name="AuditEntry" id="ent0008" data-source-line="52"><rect x="169.85" y="7" width="93.471" height="132.078" fill="#F1F1F1" style="stroke:#181818;stroke-width:0.5;" rx="2.5" ry="2.5"/><text x="179.603" y="24.995" fill="#000" font-size="14" textLength="73.965">AuditEntry</text><line x1="170.85" y1="33.297" x2="262.321" y2="33.297" style="stroke:#181818;stroke-width:0.5;"/><text x="175.85" y="50.292" fill="#000" font-size="14" textLength="14.068">at</text><text x="175.85" y="66.589" fill="#000" font-size="14" textLength="40.64">entity</text><text x="175.85" y="82.886" fill="#000" font-size="14" textLength="60.416">entity_id</text><text x="175.85" y="99.183" fill="#000" font-size="14" textLength="43.094">action</text><text x="175.85" y="115.479" fill="#000" font-size="14" textLength="73.876">old_values</text><text x="175.85" y="131.776" fill="#000" font-size="14" textLength="81.471">new_values</text></g><!--reverse link User to Driver--><g class="link" data-entity-1="ent0001" data-entity-2="ent0002" id="lnk9" data-source-line="61" data-link-type="extension"><path d="M189.413,349.213 C182.243,368.803 180.48,373.6 173.57,392.48" style="stroke:#181818;stroke-width:1;" fill="none" id="User-backto-Driver" codeLine="61"/><polygon points="195.6,332.31,183.779,347.151,195.048,351.276,195.6,332.31" fill="none" style="stroke:#181818;stroke-width:1;stroke-linejoin:miter;stroke-miterlimit:10;"/></g><!--reverse link User to Manager--><g class="link" data-entity-1="ent0001" data-entity-2="ent0003" id="lnk10" data-source-line="62" data-link-type="extension"><path d="M244.2,349.179 C257.17,384.019 266.35,408.71 273.93,429.08" style="stroke:#181818;stroke-width:1;" fill="none" id="User-backto-Manager" codeLine="62"/><polygon points="237.92,332.31,238.577,351.272,249.823,347.086,237.92,332.31" fill="none" style="stroke:#181818;stroke-width:1;stroke-linejoin:miter;stroke-miterlimit:10;"/></g><!--link Driver to Route--><g class="link" data-entity-1="ent0002" data-entity-2="ent0004" id="lnk11" data-source-line="63" data-link-type="dependency"><path d="M155.59,492.73 C155.59,515.92 155.59,538.91 155.59,563.87" style="stroke:#181818;stroke-width:1;" fill="none" id="Driver-to-Route" codeLine="63"/><polygon points="155.59,568.87,159.59,559.87,155.59,563.87,151.59,559.87,155.59,568.87" fill="#181818" style="stroke:#181818;stroke-width:1;stroke-linejoin:miter;stroke-miterlimit:10;"/><text x="156.59" y="535.407" fill="#000" font-size="13" textLength="39.673">drives</text><text x="147.07" y="512.55" fill="#000" font-size="13">1</text><text x="131.406" y="558.312" fill="#000" font-size="13" textLength="23.036">0..*</text></g><!--reverse link Route to Stop--><g class="link" data-entity-1="ent0004" data-entity-2="ent0005" id="lnk12" data-source-line="64" data-link-type="composition"><path d="M69.906,711.28 C62.786,720.48 63.97,720.92 59.59,731.42 C53.57,745.85 52.38,762.59 53.27,778" style="stroke:#181818;stroke-width:1;" fill="none" id="Route-backto-Stop" codeLine="64"/><polygon points="77.25,701.79,70.414,704.087,69.906,711.28,76.741,708.983,77.25,701.79" fill="#181818" style="stroke:#181818;stroke-width:1;stroke-linejoin:miter;stroke-miterlimit:10;"/><text x="60.59" y="744.487" fill="#000" font-size="13" textLength="144.822">ordered by stop_order</text><text x="60.773" y="721.486" fill="#000" font-size="13">1</text><text x="27.475" y="767.327" fill="#000" font-size="13" textLength="23.036">1..*</text></g><!--link Stop to Location--><g class="link" data-entity-1="ent0005" data-entity-2="ent0006" id="lnk13" data-source-line="65" data-link-type="dependency"><path d="M62.59,878.23 C62.59,902.12 62.59,925.77 62.59,949.65" style="stroke:#181818;stroke-width:1;" fill="none" id="Stop-to-Location" codeLine="65"/><polygon points="62.59,954.65,66.59,945.65,62.59,949.65,58.59,945.65,62.59,954.65" fill="#181818" style="stroke:#181818;stroke-width:1;stroke-linejoin:miter;stroke-miterlimit:10;"/><text x="63.59" y="920.977" fill="#000" font-size="13" textLength="33.56">visits</text><text x="38.047" y="898.041" fill="#000" font-size="13" textLength="23.036">1..*</text><text x="54.072" y="943.999" fill="#000" font-size="13">1</text></g><!--link Route to Parameter--><g class="link" data-entity-1="ent0004" data-entity-2="ent0007" id="lnk14" data-source-line="66" data-link-type="dependency"><path d="M194.19,701.74 C199.57,711.58 204.87,721.69 209.59,731.42 C218.13,749.02 224.635,764.339 231.395,781.469" style="stroke:#181818;stroke-width:1;stroke-dasharray:7,7;" fill="none" id="Route-to-Parameter" codeLine="66"/><polygon points="233.23,786.12,233.647,776.28,231.395,781.469,226.206,779.217,233.23,786.12" fill="#181818" style="stroke:#181818;stroke-width:1;stroke-linejoin:miter;stroke-miterlimit:10;"/><text x="217.73" y="744.487" fill="#000" font-size="13" textLength="144.873">cost and journey rules</text></g><!--link AuditEntry to User--><g class="link" data-entity-1="ent0008" data-entity-2="ent0001" id="lnk15" data-source-line="67" data-link-type="dependency"><path d="M216.59,139.45 C216.59,164.14 216.59,187.01 216.59,210.87" style="stroke:#181818;stroke-width:1;" fill="none" id="AuditEntry-to-User" codeLine="67"/><polygon points="216.59,215.87,220.59,206.87,216.59,210.87,212.59,206.87,216.59,215.87" fill="#181818" style="stroke:#181818;stroke-width:1;stroke-linejoin:miter;stroke-miterlimit:10;"/><text x="217.59" y="182.147" fill="#000" font-size="13" textLength="33.509">actor</text><text x="192.406" y="159.146" fill="#000" font-size="13" textLength="23.036">0..*</text><text x="208.12" y="204.95" fill="#000" font-size="13">1</text></g><?plantuml-src JL7BRjim4BphAmWT0zXEha8H841xAD02GOAUYRMujRVcGo2N3jJ7ltT9KRPEt25tXhipwK9-WWXEZHPIUc6ETCoCNyVWt-atgiSktLhI6Kpu87zIFy4cxCvaK8qKHzjgT1FFog4xOanTLoNLZuHH_UcKyk1G3dH0Lixf77p1CTXomCXqnUxVIliS1Iv44yRiqBEKLpoJVAURrWed2rpmnUa9exPtcU_WuOHnXMz1bgkYiLJQB3n3YS6Fg2zEaDISanG73WnM9mxJX4OxyiAf3xz2ZXxdyjkuJ7R0nEH4pkWn9BvFy2xi-cEHqI4QcKRMZRAVQ4FX6XI3EKTSuA5s9fGCJBeBVGiZC0LVnImSiRW8naHCgTumSJPb7HlyQQblvDUI879pz89pSGziBktPqsRUbso8ltYESssj4ycAnFEjq6HQOi5B4QpHLQkCuV5Z1I9Pm__qTxThUMukrcHQqFrJhtQxPzK_xlSFVGjgKAQyfcw1fUT1gFrJxQdE3gfQYaOTvwt5zR4rLbtXtXmSr9KIyQgxtpzl31fK2L21Dwh5h6AsCiJ6cJRbAbot6eeZ8Vu7?></g></svg>